<svg xmlns="http://www.w3.org/2000/svg" width="494" height="504" viewBox="0 0 494 504">
<g>
<path d="M 393.25 152.28 C392.29,152.56 387.23,154.86 382.00,157.38 C376.77,159.90 373.35,161.41 374.38,160.73 C375.42,160.05 377.54,158.46 379.10,157.19 C380.66,155.92 383.18,154.65 384.72,154.38 C386.25,154.10 388.85,153.10 390.49,152.14 L 393.49 150.40 L 393.49 107.28 C393.50,83.57 393.84,63.83 394.25,63.42 C394.66,63.00 395.00,82.71 395.00,107.22 C395.00,148.78 394.88,151.80 393.25,152.28 ZM 386.07 425.25 C387.80,427.31 389.05,428.99 388.85,428.98 C388.66,428.98 380.39,420.92 370.49,411.08 C360.58,401.23 353.21,393.58 354.10,394.06 C355.00,394.54 355.96,394.71 356.23,394.44 C356.50,394.17 357.98,395.65 359.51,397.72 C363.41,403.00 370.21,410.00 371.46,410.01 C372.45,410.02 379.34,417.21 386.07,425.25 ZM 61.56 380.97 C61.05,380.99 59.47,382.00 58.06,383.22 C56.65,384.45 59.09,381.75 63.48,377.22 C71.28,369.17 72.91,367.73 71.34,370.25 C70.91,370.94 70.48,372.01 70.38,372.64 C70.17,374.03 62.87,380.94 61.56,380.97 ZM 350.00 173.50 C346.42,175.37 343.26,176.92 342.97,176.95 C342.69,176.98 339.09,173.51 334.97,169.25 L 327.50 161.50 L 335.02 168.75 C339.16,172.74 342.81,176.00 343.14,176.00 C343.46,176.00 345.42,174.65 347.50,173.00 C349.60,171.33 352.43,170.02 353.89,170.05 C355.98,170.09 355.21,170.77 350.00,173.50 ZM 105.66 50.36 C104.35,52.88 97.00,60.23 97.00,59.02 C97.00,57.61 102.97,50.09 104.91,49.05 C106.74,48.07 106.80,48.16 105.66,50.36 ZM 393.00 58.18 C393.00,59.74 391.96,58.99 390.24,56.16 C389.28,54.60 387.98,53.50 387.34,53.71 C386.14,54.12 384.70,52.44 384.37,50.25 C384.26,49.56 384.55,49.00 385.01,49.00 C386.02,49.00 393.00,57.02 393.00,58.18 ZM 428.36 427.38 C425.20,430.01 424.00,430.55 424.00,429.35 C424.00,428.27 430.82,422.00 432.00,422.00 C433.59,422.00 432.02,424.31 428.36,427.38 ZM 84.80 334.64 C85.05,337.59 84.97,340.00 84.62,340.00 C84.28,340.00 83.98,338.76 83.96,337.25 C83.92,334.80 83.20,332.37 80.48,325.50 C79.96,324.19 80.49,324.50 82.02,326.39 C83.61,328.35 84.50,330.99 84.80,334.64 ZM 79.24 191.90 C78.74,192.23 77.82,193.40 77.19,194.50 C75.43,197.61 75.80,195.71 78.14,189.59 C79.32,186.52 80.62,184.00 81.03,184.00 C82.03,184.00 80.41,191.12 79.24,191.90 ZM 177.89 77.56 C178.75,78.42 176.45,77.90 173.25,76.51 C171.46,75.73 170.00,74.60 170.00,73.99 C170.00,73.38 169.44,73.20 168.75,73.59 C167.82,74.11 167.78,73.99 168.61,73.08 C169.47,72.15 170.61,72.47 173.59,74.49 C175.71,75.94 177.65,77.31 177.89,77.56 ZM 93.50 432.93 C89.68,434.48 85.00,435.17 85.00,434.20 C85.00,433.00 88.52,432.01 92.50,432.08 C95.03,432.12 95.18,432.25 93.50,432.93 ZM 209.00 140.91 C208.18,141.38 206.38,142.10 205.01,142.52 C202.78,143.21 202.66,143.12 203.88,141.64 C204.63,140.74 206.43,140.01 207.87,140.03 C209.83,140.05 210.12,140.28 209.00,140.91 Z" fill="rgb(175,91,39)"/>
<path d="M 393.25 152.28 C393.29,152.27 393.33,152.26 393.37,152.24 L 368.80 164.29 L 349.67 173.67 C349.78,173.62 349.89,173.56 350.00,173.50 C355.21,170.77 355.98,170.09 353.89,170.05 C352.43,170.02 349.60,171.33 347.50,173.00 C345.42,174.65 343.46,176.00 343.14,176.00 C342.81,176.00 339.16,172.74 335.02,168.75 L 327.50 161.50 L 334.97 169.25 C339.09,173.51 342.69,176.98 342.97,176.95 C342.98,176.95 342.98,176.95 342.99,176.95 L 342.71 177.09 L 333.61 168.21 C317.16,152.17 301.06,143.17 278.76,137.53 C261.14,133.07 237.25,133.04 220.56,137.47 C180.81,148.00 150.00,177.62 138.98,215.89 C129.08,250.31 134.73,287.10 154.27,315.50 C158.55,321.72 173.48,337.12 180.62,342.69 C191.71,351.32 212.25,360.06 229.48,363.47 C241.87,365.92 265.91,365.22 277.50,362.07 C299.14,356.18 309.44,351.01 326.86,337.26 C330.51,334.38 334.06,332.02 334.73,332.01 C335.41,332.01 338.56,333.33 341.73,334.95 C344.90,336.57 347.81,337.59 348.20,337.20 C349.01,336.39 351.60,312.63 352.61,296.76 L 353.29 286.02 L 304.40 285.76 L 255.50 285.50 L 254.97 226.00 L 338.38 226.00 C416.89,226.00 421.83,226.10 422.47,227.75 C422.85,228.71 423.41,237.91 423.73,248.18 C424.66,278.61 421.55,295.34 408.67,329.00 C407.13,333.04 406.57,336.75 406.58,343.00 C406.60,354.36 408.30,357.42 423.02,372.48 C437.64,387.45 439.39,390.59 439.45,402.00 C439.49,409.37 439.12,411.27 436.65,416.29 C435.48,418.70 434.09,420.88 432.54,422.84 C432.74,422.31 432.58,422.00 432.00,422.00 C430.82,422.00 424.00,428.27 424.00,429.35 C424.00,429.89 424.24,430.08 424.78,429.89 C415.98,435.53 404.75,436.37 393.94,431.40 C392.19,430.59 390.26,429.32 387.61,427.15 C387.17,426.59 386.65,425.94 386.07,425.25 C379.34,417.21 372.45,410.02 371.46,410.01 C370.21,410.00 363.41,403.00 359.51,397.72 C357.98,395.65 356.50,394.17 356.23,394.44 C355.96,394.71 355.00,394.54 354.10,394.06 C353.37,393.66 358.18,398.73 365.40,405.99 C353.19,394.09 349.93,392.00 345.51,392.00 C343.17,392.00 332.03,398.06 330.11,400.36 C329.41,401.21 331.13,403.83 336.02,409.38 C344.90,419.46 346.38,423.29 345.80,434.72 C345.25,445.73 343.26,449.83 334.79,457.38 C326.85,464.47 321.43,466.42 311.48,465.78 C301.77,465.16 298.83,463.26 281.07,446.09 C264.14,429.73 259.55,426.93 248.53,426.22 C240.13,425.68 232.26,427.23 226.65,430.52 C224.53,431.76 216.20,439.30 208.15,447.26 C200.09,455.22 191.93,462.55 190.00,463.55 C187.65,464.78 183.86,465.46 178.50,465.64 C166.57,466.03 160.85,463.52 152.77,454.34 C147.19,448.02 144.85,441.39 144.88,432.03 C144.91,423.11 147.13,417.93 155.03,408.38 C158.32,404.41 161.00,400.96 161.00,400.70 C161.00,400.44 158.16,398.38 154.68,396.12 C147.69,391.57 143.89,390.98 138.70,393.65 C136.94,394.55 127.74,402.99 118.26,412.40 C103.51,427.03 97.80,432.09 91.28,433.71 C92.02,433.49 92.78,433.23 93.50,432.93 C95.18,432.25 95.03,432.12 92.50,432.08 C88.52,432.01 85.00,433.00 85.00,434.20 C85.00,434.28 85.03,434.35 85.10,434.41 C84.43,434.42 83.73,434.42 83.00,434.41 C73.94,434.31 68.16,432.03 61.60,425.98 C53.54,418.56 49.42,405.63 52.01,395.94 C53.38,390.82 54.83,387.41 58.12,383.17 C59.52,381.97 61.06,380.99 61.56,380.97 C62.87,380.94 70.17,374.03 70.38,372.64 C70.48,372.01 70.91,370.94 71.34,370.25 C72.91,367.73 71.28,369.17 63.48,377.22 C62.28,378.45 61.24,379.55 60.37,380.46 C62.45,378.10 65.09,375.39 68.51,372.00 C74.91,365.67 81.05,358.76 82.16,356.62 C84.67,351.78 85.42,346.67 84.17,339.20 C84.29,339.69 84.45,340.00 84.62,340.00 C84.97,340.00 85.05,337.59 84.80,334.64 C84.50,330.99 83.61,328.35 82.02,326.39 C81.15,325.30 80.60,324.74 80.38,324.70 C79.72,322.64 78.97,320.45 78.14,318.11 C69.53,293.84 66.44,273.85 67.27,248.02 C67.83,230.71 69.87,217.65 74.70,200.50 C75.05,199.28 75.58,197.72 76.25,195.92 C76.42,195.78 76.74,195.31 77.19,194.50 C77.82,193.40 78.74,192.23 79.24,191.90 C80.35,191.16 81.87,184.69 81.16,184.05 C85.27,174.77 90.26,164.68 93.26,160.00 C95.48,156.53 95.50,156.14 96.00,107.83 L 96.50 59.17 L 97.68 57.47 C97.26,58.17 97.00,58.73 97.00,59.02 C97.00,60.23 104.35,52.88 105.66,50.36 C106.25,49.22 106.52,48.65 106.39,48.49 C110.05,46.47 114.52,45.52 120.00,45.57 C128.22,45.64 130.97,46.69 139.49,53.03 C142.25,55.07 150.28,60.21 157.35,64.44 C161.92,67.18 167.16,70.43 171.25,73.06 C169.91,72.39 169.20,72.45 168.61,73.08 C167.78,73.99 167.82,74.11 168.75,73.59 C169.44,73.20 170.00,73.38 170.00,73.99 C170.00,74.60 171.46,75.73 173.25,76.51 C176.45,77.90 178.75,78.42 177.89,77.56 C177.82,77.49 177.64,77.34 177.35,77.13 L 183.08 81.13 L 187.79 79.61 C208.94,72.76 226.21,70.54 252.59,71.26 C272.38,71.81 284.25,73.37 293.21,76.62 C295.57,77.47 299.74,78.77 302.48,79.50 C303.87,79.87 304.86,80.17 305.87,80.22 C308.83,80.36 311.90,78.36 325.20,69.65 C325.77,69.28 326.35,68.89 326.95,68.50 C361.79,45.70 363.01,45.05 371.12,45.02 C376.17,45.00 381.00,46.44 384.86,49.02 C384.49,49.13 384.27,49.64 384.37,50.25 C384.70,52.44 386.14,54.12 387.34,53.71 C387.98,53.50 389.28,54.60 390.24,56.16 C391.85,58.80 392.86,59.64 392.99,58.46 C393.51,59.80 393.89,61.45 394.17,63.71 C393.80,66.29 393.50,85.04 393.49,107.28 L 393.49 150.40 L 390.49 152.14 C388.85,153.10 386.25,154.10 384.72,154.38 C383.18,154.65 380.66,155.92 379.10,157.19 C377.54,158.46 375.42,160.05 374.38,160.73 C373.35,161.41 376.77,159.90 382.00,157.38 C387.23,154.86 392.29,152.56 393.25,152.28 ZM 209.00 140.91 C210.12,140.28 209.83,140.05 207.87,140.03 C206.43,140.01 204.63,140.74 203.88,141.64 C202.66,143.12 202.78,143.21 205.01,142.52 C206.38,142.10 208.18,141.38 209.00,140.91 ZM 393.50 152.17 C394.38,151.66 394.75,149.54 394.90,138.19 L 394.88 151.50 ZM 81.30 327.59 C83.35,332.90 83.92,335.07 83.96,337.25 C83.96,337.66 83.99,338.04 84.03,338.39 C83.46,335.25 82.56,331.70 81.30,327.59 ZM 394.95 91.72 C394.89,82.42 394.78,74.64 394.64,69.60 C394.88,74.65 394.95,81.65 394.95,91.72 ZM 391.80 56.13 C390.70,54.64 389.01,52.67 387.58,51.17 C388.04,51.61 388.48,52.06 388.90,52.54 C390.08,53.88 391.03,54.95 391.80,56.13 ZM 101.61 52.22 C100.93,53.01 100.23,53.88 99.59,54.72 C100.22,53.82 100.90,52.98 101.61,52.22 Z" fill="rgb(179,79,19)"/>
<path d="M 0.00 252.00 L 0.00 0.00 L 247.00 0.00 L 494.00 0.00 L 494.00 252.00 L 494.00 504.00 L 247.00 504.00 L 0.00 504.00 L 0.00 252.00 ZM 190.00 463.55 C191.93,462.55 200.09,455.22 208.15,447.26 C216.20,439.30 224.53,431.76 226.65,430.52 C232.26,427.23 240.13,425.68 248.53,426.22 C259.55,426.93 264.14,429.73 281.07,446.09 C298.83,463.26 301.77,465.16 311.48,465.78 C321.43,466.42 326.85,464.47 334.79,457.38 C343.26,449.83 345.25,445.73 345.80,434.72 C346.38,423.29 344.90,419.46 336.02,409.38 C331.13,403.83 329.41,401.21 330.11,400.36 C332.03,398.06 343.17,392.00 345.51,392.00 C350.54,392.00 354.07,394.70 371.00,411.51 C384.47,424.89 389.75,429.46 393.94,431.40 C410.72,439.13 428.54,432.83 436.65,416.29 C439.12,411.27 439.49,409.37 439.45,402.00 C439.39,390.59 437.64,387.45 423.02,372.48 C408.30,357.42 406.60,354.36 406.58,343.00 C406.57,336.75 407.13,333.04 408.67,329.00 C421.55,295.34 424.66,278.61 423.73,248.18 C423.41,237.91 422.85,228.71 422.47,227.75 C421.83,226.10 416.89,226.00 338.38,226.00 L 254.97 226.00 L 255.24 255.75 L 255.50 285.50 L 304.40 285.76 L 353.29 286.02 L 352.61 296.76 C351.60,312.63 349.01,336.39 348.20,337.20 C347.81,337.59 344.90,336.57 341.73,334.95 C338.56,333.33 335.41,332.01 334.73,332.01 C334.06,332.02 330.51,334.38 326.86,337.26 C309.44,351.01 299.14,356.18 277.50,362.07 C265.91,365.22 241.87,365.92 229.48,363.47 C212.25,360.06 191.71,351.32 180.62,342.69 C173.48,337.12 158.55,321.72 154.27,315.50 C134.73,287.10 129.08,250.31 138.98,215.89 C150.00,177.62 180.81,148.00 220.56,137.47 C237.25,133.04 261.14,133.07 278.76,137.53 C301.06,143.17 317.16,152.17 333.61,168.21 L 342.71 177.09 L 368.80 164.29 L 394.88 151.50 L 394.94 107.37 C395.01,58.96 395.07,59.57 388.90,52.54 C384.72,47.78 378.14,44.99 371.12,45.02 C363.01,45.05 361.79,45.70 326.95,68.50 C307.31,81.36 308.11,81.00 302.48,79.50 C299.74,78.77 295.57,77.47 293.21,76.62 C284.25,73.37 272.38,71.81 252.59,71.26 C226.21,70.54 208.94,72.76 187.79,79.61 L 183.08 81.13 L 176.64 76.64 C173.10,74.16 164.42,68.67 157.35,64.44 C150.28,60.21 142.25,55.07 139.49,53.03 C130.97,46.69 128.22,45.64 120.00,45.57 C110.45,45.48 103.96,48.42 99.51,54.83 L 96.50 59.17 L 96.00 107.83 C95.50,156.14 95.48,156.53 93.26,160.00 C88.09,168.05 77.06,192.15 74.70,200.50 C69.87,217.65 67.83,230.71 67.27,248.02 C66.44,273.85 69.53,293.84 78.14,318.11 C85.56,339.04 86.52,348.23 82.16,356.62 C81.05,358.76 74.91,365.67 68.51,372.00 C56.93,383.45 54.35,387.19 52.01,395.94 C49.42,405.63 53.54,418.56 61.60,425.98 C68.16,432.03 73.94,434.31 83.00,434.41 C94.77,434.54 97.93,432.57 118.26,412.40 C127.74,402.99 136.94,394.55 138.70,393.65 C143.89,390.98 147.69,391.57 154.68,396.12 C158.16,398.38 161.00,400.44 161.00,400.70 C161.00,400.96 158.32,404.41 155.03,408.38 C147.13,417.93 144.91,423.11 144.88,432.03 C144.85,441.39 147.19,448.02 152.77,454.34 C160.85,463.52 166.57,466.03 178.50,465.64 C183.86,465.46 187.65,464.78 190.00,463.55 Z" fill="rgb(244,220,181)"/>
</g>
</svg>